<?xml version="1.0" encoding="utf-8"?>
<!-- Generator: Adobe Illustrator 16.0.0, SVG Export Plug-In . SVG Version: 6.00 Build 0)  -->
<!DOCTYPE svg PUBLIC "-//W3C//DTD SVG 1.1//EN" "http://www.w3.org/Graphics/SVG/1.1/DTD/svg11.dtd">
<svg version="1.1" id="Layer_1" xmlns="http://www.w3.org/2000/svg" xmlns:xlink="http://www.w3.org/1999/xlink" x="0px" y="0px"
	 width="500px" height="160.495px" viewBox="0 0 500 160.495" enable-background="new 0 0 500 160.495" xml:space="preserve">
<g>
	<path fill="#231F20" d="M274.818,105.535c0-16.203-14.293-18.953-23.826-18.953h-26.36v73.913h26.36
		c9.318,0,26.053-2.756,26.053-21.39c0-9.107-6.889-15.883-16.943-16.838v-0.213C268.889,120.469,274.818,114.324,274.818,105.535
		 M239.458,127.455h7.514c7.411,0,15.25,1.486,15.25,11.119c0,8.574-8.371,10.273-15.25,10.273h-7.514V127.455z M259.993,107.442
		c0,7.625-7.729,9.001-13.973,9.001h-6.563V98.231h6.241C252.479,98.231,259.993,98.866,259.993,107.442"/>
	<path fill="#231F20" d="M421.608,21.291c0-20.542-18.951-20.013-34.837-20.013h-15.99v73.913h14.826v-30.71h4.767
		c6.244,0,8.155,2.119,10.27,7.625l8.896,23.084h16.52l-11.859-28.913c-1.479-3.28-3.813-7.303-7.836-7.62v-0.213
		C415.79,37.177,421.608,29.976,421.608,21.291 M406.146,22.564c0,9.206-8.357,10.271-15.668,10.271h-4.871V12.927h4.871
		C397.889,12.927,406.146,13.666,406.146,22.564"/>
	<path fill="#231F20" d="M499.883,38.024c0-22.348-13.029-38.016-36.216-38.016c-23.506,0-36.218,15.352-36.218,38.016
		c0,22.659,12.497,38.439,36.218,38.439C487.071,76.464,499.883,60.366,499.883,38.024 M484.425,38.024
		c0,13.339-5.618,26.792-20.758,26.792c-15.146,0-20.759-13.453-20.759-26.792c0-13.026,6.039-26.371,20.759-26.371
		C478.382,11.654,484.425,24.998,484.425,38.024"/>
	<path fill="#231F20" d="M295.586,75.191L266.572,1.278h-16.73l-28.807,73.913h15.361l6.456-16.941h29.966l6.351,16.941H295.586z
		 M268.688,46.601h-21.601l10.694-30.497h0.215L268.688,46.601z"/>
	<path fill="#231F20" d="M357.415,3.076c-6.356-1.907-13.133-3.067-21.716-3.067c-25.09,0-40.553,14.187-40.553,39.498
		c0,24.987,16.625,36.958,40.553,36.958c7.947,0,16.101-1.696,23.938-3.814V32.836h-29.861v11.646h15.668v19.273
		c-2.538,0.634-5.717,1.056-9.743,1.056c-15.773,0-25.091-11.328-25.091-26.366c0-15.138,9.527-26.792,26.787-26.792
		c5.938,0,13.349,1.273,19.065,3.919L357.415,3.076z"/>
	<path fill="#231F20" d="M355.6,160.494l-29.022-73.913h-16.726l-28.805,73.913H296.4l6.463-16.942h29.966l6.354,16.942H355.6z
		 M328.698,131.906h-21.604l10.7-30.499h0.207L328.698,131.906z"/>
	<polygon fill="#231F20" points="363.343,160.494 377.534,160.494 377.534,105.217 377.74,105.217 406.018,160.494 424.123,160.494 
		424.123,86.582 409.938,86.582 409.938,141.854 409.722,141.854 381.554,86.582 363.343,86.582 	"/>
	<rect x="199.408" y="1.25" fill="#231F20" width="3.322" height="159.244"/>
	<polygon fill="#231F20" points="437.188,160.494 452.014,160.494 452.014,126.188 452.229,126.188 478.807,160.494 
		498.182,160.494 466.52,121.416 496.913,86.577 478.699,86.577 452.014,118.348 452.014,86.577 437.188,86.577 	"/>
	<path fill="#E31B23" d="M185.439,160.494h-81.456c7.208-3.961,12.092-11.627,12.092-20.426c0-12.871-10.434-23.308-23.303-23.308
		c-12.867,0-23.296,10.437-23.296,23.308c0,8.799,4.884,16.465,12.092,20.426H0.117L92.773,0L185.439,160.494z"/>
</g>
</svg>
