<!DOCTYPE svg PUBLIC "-//W3C//DTD SVG 20010904//EN" "http://www.w3.org/TR/2001/REC-SVG-20010904/DTD/svg10.dtd">
<svg version="1.0" xmlns="http://www.w3.org/2000/svg" width="1313px" height="323px" viewBox="0 0 13130 3230" preserveAspectRatio="xMidYMid meet">
<g id="layer101" fill="#213569" stroke="none">
 <path d="M4160 3143 c-163 -17 -379 -77 -505 -140 -331 -167 -537 -436 -632 -828 -15 -63 -17 -165 -20 -970 l-4 -900 24 -45 c35 -67 93 -103 171 -108 69 -5 109 10 159 57 66 60 61 0 67 941 6 977 1 918 100 1116 160 319 505 491 907 453 355 -33 635 -243 745 -559 52 -150 51 -127 55 -1019 4 -796 5 -836 23 -872 52 -102 181 -145 280 -94 42 22 98 90 110 135 8 28 10 297 8 893 -3 843 -4 853 -26 960 -115 545 -490 884 -1077 972 -90 13 -293 18 -385 8z"/>
 <path d="M11235 3115 c-334 -56 -601 -190 -820 -410 -124 -124 -209 -244 -286 -400 -66 -136 -100 -234 -131 -379 -31 -148 -31 -456 1 -606 109 -520 439 -914 931 -1114 35 -14 120 -41 189 -58 125 -33 128 -33 361 -33 205 1 248 3 333 23 405 90 728 309 939 637 303 469 329 1067 69 1560 -206 391 -550 656 -991 762 -91 22 -132 26 -310 29 -140 2 -230 -1 -285 -11z m462 -400 c295 -56 549 -232 701 -485 168 -281 208 -666 101 -984 -183 -548 -735 -849 -1294 -706 -380 97 -670 401 -760 796 -145 636 210 1239 810 1374 104 24 331 26 442 5z"/>
 <path d="M1340 3113 c-102 -7 -251 -37 -349 -69 -440 -144 -724 -467 -818 -928 -14 -70 -17 -195 -20 -943 -3 -609 -1 -874 7 -903 13 -49 67 -111 114 -134 19 -9 60 -16 93 -16 72 0 136 36 174 96 l24 39 5 845 6 845 27 99 c48 179 115 294 239 412 88 84 170 135 276 174 161 59 191 62 642 66 408 4 416 5 460 27 59 30 102 98 107 170 6 75 -34 151 -101 192 l-49 30 -396 1 c-218 0 -416 -1 -441 -3z"/>
 <path d="M6630 3027 c-51 -24 -82 -51 -108 -96 l-27 -46 -3 -780 c-3 -838 1 -961 43 -1134 115 -472 459 -790 975 -898 68 -14 132 -18 320 -18 209 1 245 3 330 23 135 33 232 67 335 119 293 147 500 395 593 708 56 191 57 205 57 1130 l0 850 -28 48 c-15 26 -47 60 -69 75 -36 23 -52 27 -113 27 -61 0 -77 -4 -113 -27 -22 -15 -54 -49 -69 -75 l-28 -48 -5 -855 c-4 -470 -10 -866 -14 -880 -4 -14 -17 -54 -28 -90 -116 -367 -440 -590 -858 -590 -374 0 -676 175 -820 475 -78 162 -73 100 -80 1060 -6 946 -2 888 -67 965 -51 61 -157 88 -223 57z"/>
 </g>
<g id="layer102" fill="#5a698f" stroke="none">
 <path d="M4130 3140 c-36 -5 -84 -14 -105 -20 l-40 -10 45 6 c216 26 332 30 465 15 44 -6 100 -12 125 -15 33 -4 28 -1 -20 10 -78 18 -377 27 -470 14z"/>
 <path d="M11275 3121 c-22 -3 75 -6 215 -6 140 0 235 3 210 7 -55 8 -370 8 -425 -1z"/>
 <path d="M1567 3113 c105 -2 281 -2 390 0 109 1 23 2 -192 2 -214 0 -304 -1 -198 -2z"/>
 <path d="M1132 3084 c-167 -36 -343 -112 -479 -206 -89 -61 -213 -181 -262 -253 -42 -61 -23 -43 53 52 155 193 423 344 721 403 49 10 77 18 60 18 -16 0 -58 -6 -93 -14z"/>
 <path d="M11880 3076 c231 -66 412 -160 587 -307 71 -60 110 -100 213 -219 l22 -25 -20 30 c-62 94 -232 250 -367 337 -142 92 -365 186 -480 202 -22 4 -2 -5 45 -18z"/>
 <path d="M10955 3046 c-86 -31 -159 -65 -142 -66 4 0 21 7 37 15 17 9 76 31 132 50 57 19 94 35 83 34 -11 0 -60 -15 -110 -33z"/>
 <path d="M6630 3027 c-51 -24 -82 -51 -108 -96 l-27 -46 -3 -785 c-2 -484 1 -829 7 -900 11 -114 30 -234 38 -227 2 2 -4 46 -14 98 -16 85 -18 172 -18 954 0 817 1 862 18 894 39 70 87 100 177 111 l55 7 -50 1 c-27 0 -61 -5 -75 -11z"/>
 <path d="M8861 3030 c-45 -20 -81 -52 -108 -98 l-28 -47 -6 -855 c-3 -470 -9 -868 -12 -885 l-7 -30 12 30 c9 22 14 254 18 886 l5 856 30 48 c79 128 261 128 340 0 l30 -48 0 -881 c0 -485 3 -843 8 -796 4 47 6 443 5 880 l-3 795 -28 48 c-40 68 -94 100 -171 104 -33 2 -72 -2 -85 -7z"/>
 <path d="M2317 2933 c8 -69 -16 -131 -68 -177 -21 -20 -44 -36 -51 -36 -6 0 -8 -3 -5 -6 4 -4 24 5 46 19 68 45 110 164 81 232 -5 13 -6 0 -3 -32z"/>
 <path d="M3459 2881 c-116 -88 -254 -247 -303 -351 -18 -38 -13 -32 55 74 56 88 150 189 238 258 80 63 86 68 79 68 -3 0 -34 -22 -69 -49z"/>
 <path d="M5135 2913 c6 -5 43 -35 82 -67 40 -32 96 -86 125 -120 28 -33 58 -68 67 -76 13 -13 13 -13 1 5 -41 58 -127 148 -187 197 -61 49 -115 87 -88 61z"/>
 <path d="M10600 2863 c-47 -32 -126 -98 -176 -148 -84 -82 -201 -228 -225 -279 -7 -16 -5 -15 8 4 147 204 256 318 389 409 82 56 102 71 93 71 -3 0 -43 -26 -89 -57z"/>
 <path d="M6897 2885 c4 -11 10 -398 13 -860 l6 -840 -1 840 c0 680 -3 844 -13 860 l-14 20 9 -20z"/>
 <path d="M4209 2730 c-42 -5 -92 -14 -110 -19 l-34 -11 39 6 c114 16 218 22 290 17 45 -3 79 -3 76 -1 -10 11 -187 16 -261 8z"/>
 <path d="M11325 2735 c-5 -2 -36 -9 -68 -15 -32 -7 -57 -14 -54 -16 2 -2 36 2 76 11 94 20 314 20 417 0 87 -17 111 -13 37 5 -46 11 -387 24 -408 15z"/>
 <path d="M1310 2693 c-83 -15 -256 -70 -247 -79 2 -2 20 2 40 11 70 29 192 57 281 65 89 7 89 7 21 7 -38 0 -81 -2 -95 -4z"/>
 <path d="M3983 2680 c-69 -25 -181 -84 -218 -116 -26 -22 -25 -22 15 4 64 42 145 81 220 108 36 12 58 23 50 23 -8 0 -38 -9 -67 -19z"/>
 <path d="M11104 2676 c-85 -33 -138 -61 -224 -119 -79 -54 -199 -168 -239 -227 -17 -26 -13 -23 15 10 129 154 282 263 464 331 41 15 68 28 60 28 -8 0 -42 -10 -76 -23z"/>
 <path d="M11994 2612 c150 -80 273 -191 389 -352 17 -24 17 -24 0 7 -32 61 -138 178 -220 243 -72 58 -226 150 -249 150 -5 0 31 -22 80 -48z"/>
 <path d="M4818 2597 c99 -63 162 -118 218 -190 53 -70 71 -90 59 -67 -21 38 -108 139 -152 176 -52 44 -152 111 -181 121 -9 3 16 -15 56 -40z"/>
 <path d="M939 2548 c-111 -74 -215 -193 -278 -315 -33 -66 -24 -65 12 2 18 33 46 80 64 105 41 60 169 181 227 215 41 24 54 35 42 35 -2 0 -32 -19 -67 -42z"/>
 <path d="M12822 2318 c23 -46 58 -130 79 -188 21 -58 38 -100 38 -93 2 37 -137 363 -154 363 -3 0 14 -37 37 -82z"/>
 <path d="M186 2172 c-9 -38 -18 -102 -21 -143 -4 -71 -4 -70 9 21 8 53 19 115 26 139 6 24 9 45 7 48 -3 2 -12 -27 -21 -65z"/>
 <path d="M10039 2088 c-32 -109 -59 -247 -57 -298 l1 -45 4 40 c6 70 32 198 57 285 14 46 23 86 21 88 -2 2 -13 -29 -26 -70z"/>
 <path d="M12444 2150 c3 -8 19 -51 36 -94 18 -44 40 -116 51 -160 14 -60 17 -68 13 -31 -7 59 -55 210 -84 263 -12 20 -19 30 -16 22z"/>
 <path d="M5627 2105 c3 -22 7 -426 10 -897 3 -626 1 -869 -8 -900 -20 -78 -113 -148 -195 -148 -63 0 -144 51 -174 110 -19 38 -20 61 -21 807 -1 422 -4 800 -8 838 -3 39 -5 -308 -3 -769 3 -802 4 -841 22 -877 52 -102 181 -145 280 -94 42 22 98 90 110 135 15 56 8 1738 -8 1795 l-11 40 6 -40z"/>
 <path d="M3005 1170 c0 -481 1 -678 2 -438 2 241 2 635 0 875 -1 241 -2 44 -2 -437z"/>
 <path d="M155 1120 c0 -459 1 -647 2 -418 2 230 2 606 0 835 -1 230 -2 42 -2 -417z"/>
 <path d="M566 1874 c-3 -43 -5 -422 -4 -843 l2 -766 6 840 c3 462 5 841 4 843 -1 1 -4 -32 -8 -74z"/>
 <path d="M3415 1130 c0 -448 1 -632 2 -408 2 225 2 591 0 815 -1 225 -2 41 -2 -407z"/>
 <path d="M12965 1905 c2 -22 9 -83 15 -134 6 -52 13 -97 15 -100 10 -9 4 72 -11 161 -16 98 -27 140 -19 73z"/>
 <path d="M12987 1505 c-9 -70 -35 -239 -42 -275 -5 -25 -5 -25 5 -2 15 36 51 261 48 301 -3 30 -5 26 -11 -24z"/>
 <path d="M8676 1052 c-62 -195 -195 -359 -378 -464 -45 -27 -78 -48 -72 -48 5 0 43 20 84 44 137 80 257 208 327 351 33 65 68 164 61 171 -3 2 -13 -22 -22 -54z"/>
 <path d="M6950 1040 c0 -28 83 -183 134 -248 45 -59 155 -160 201 -184 27 -14 22 -10 -66 60 -106 83 -183 186 -240 320 -16 37 -29 60 -29 52z"/>
 <path d="M12368 977 c-175 -263 -447 -428 -768 -467 -57 -6 -59 -8 -20 -8 25 -1 84 7 131 17 241 54 450 182 599 368 61 76 106 143 97 143 -2 0 -20 -24 -39 -53z"/>
 <path d="M10576 992 c68 -119 224 -271 366 -355 124 -74 338 -138 448 -136 35 1 28 4 -30 10 -299 35 -572 192 -734 424 -58 82 -76 103 -50 57z"/>
 <path d="M6659 655 c47 -100 179 -251 295 -339 69 -52 186 -123 186 -113 0 3 -29 22 -65 42 -139 77 -272 202 -363 341 -26 39 -53 79 -60 90 -7 10 -4 1 7 -21z"/>
 <path d="M10318 644 c41 -53 195 -199 255 -242 73 -52 55 -31 -28 33 -42 32 -117 101 -167 154 -51 53 -77 77 -60 55z"/>
 <path d="M12599 587 c-36 -40 -99 -99 -140 -132 -96 -76 -117 -97 -55 -54 63 44 173 146 226 209 61 73 44 61 -31 -23z"/>
 <path d="M8929 583 c-59 -91 -207 -238 -300 -299 -116 -75 -117 -76 -73 -55 65 31 194 132 266 209 67 71 170 212 155 212 -3 0 -24 -30 -48 -67z"/>
 <path d="M7310 595 c0 -15 220 -106 253 -104 6 0 -24 13 -68 28 -44 15 -104 40 -132 55 -29 14 -53 24 -53 21z"/>
 <path d="M7605 479 c54 -19 311 -22 390 -5 62 13 64 14 15 8 -72 -9 -310 -9 -380 0 -45 6 -49 6 -25 -3z"/>
 <path d="M11180 133 c38 -10 121 -16 270 -18 l215 -3 -210 8 c-115 5 -230 13 -255 19 -68 15 -83 11 -20 -6z"/>
 <path d="M7482 80 c46 -14 201 -32 228 -27 18 3 13 5 -15 6 -22 0 -80 8 -130 16 -99 16 -125 18 -83 5z"/>
 <path d="M8133 84 c-6 -3 -58 -12 -115 -19 -101 -14 -102 -14 -23 -9 74 4 216 31 170 32 -11 0 -25 -2 -32 -4z"/>
 </g>
<g id="layer103" fill="#8893ae" stroke="none">
 <path d="M4195 3145 c6 -2 89 -5 185 -7 96 -3 153 -1 125 3 -49 7 -330 11 -310 4z"/>
 <path d="M1567 3113 c105 -2 281 -2 390 0 109 1 23 2 -192 2 -214 0 -304 -1 -198 -2z"/>
 <path d="M8844 3019 c-23 -11 -50 -29 -60 -41 -11 -12 0 -7 28 13 58 40 141 51 201 26 20 -9 37 -14 37 -11 0 3 -16 12 -35 20 -49 20 -123 18 -171 -7z"/>
 <path d="M8725 2050 c0 -448 1 -632 2 -408 2 225 2 591 0 815 -1 225 -2 41 -2 -407z"/>
 <path d="M9145 2050 c0 -448 1 -632 2 -408 2 225 2 591 0 815 -1 225 -2 41 -2 -407z"/>
 <path d="M6495 2050 c0 -443 1 -624 2 -403 2 222 2 584 0 805 -1 222 -2 41 -2 -402z"/>
 <path d="M6915 2010 c0 -448 1 -632 2 -408 2 225 2 591 0 815 -1 225 -2 41 -2 -407z"/>
 <path d="M11412 2733 c37 -2 100 -2 140 0 40 1 10 3 -67 3 -77 0 -110 -1 -73 -3z"/>
 <path d="M5645 1160 c0 -459 1 -647 2 -418 2 230 2 606 0 835 -1 230 -2 42 -2 -417z"/>
 <path d="M155 1120 c0 -459 1 -647 2 -418 2 230 2 606 0 835 -1 230 -2 42 -2 -417z"/>
 <path d="M3415 1120 c0 -443 1 -624 2 -403 2 222 2 584 0 805 -1 222 -2 41 -2 -402z"/>
 </g>
<g id="layer104" fill="#c5cad8" stroke="none">
 <path d="M1567 3113 c105 -2 281 -2 390 0 109 1 23 2 -192 2 -214 0 -304 -1 -198 -2z"/>
 <path d="M8725 2070 c0 -437 1 -616 2 -397 2 218 2 576 0 795 -1 218 -2 39 -2 -398z"/>
 <path d="M9145 2050 c0 -448 1 -632 2 -408 2 225 2 591 0 815 -1 225 -2 41 -2 -407z"/>
 <path d="M6495 2050 c0 -443 1 -624 2 -403 2 222 2 584 0 805 -1 222 -2 41 -2 -402z"/>
 <path d="M6915 2030 c0 -437 1 -616 2 -397 2 218 2 576 0 795 -1 218 -2 39 -2 -398z"/>
 <path d="M5645 1160 c0 -459 1 -647 2 -418 2 230 2 606 0 835 -1 230 -2 42 -2 -417z"/>
 <path d="M3415 1100 c0 -432 1 -608 2 -393 2 216 2 570 0 785 -1 216 -2 40 -2 -392z"/>
 </g>

</svg>