<?xml version="1.0" encoding="UTF-8" standalone="no"?>
<svg
   xmlns:dc="http://purl.org/dc/elements/1.1/"
   xmlns:cc="http://creativecommons.org/ns#"
   xmlns:rdf="http://www.w3.org/1999/02/22-rdf-syntax-ns#"
   xmlns:svg="http://www.w3.org/2000/svg"
   xmlns="http://www.w3.org/2000/svg"
   xmlns:sodipodi="http://sodipodi.sourceforge.net/DTD/sodipodi-0.dtd"
   xmlns:inkscape="http://www.inkscape.org/namespaces/inkscape"
   viewBox="0 0 275 118.694"
   height="118.694"
   width="275"
   xml:space="preserve"
   id="svg2"
   version="1.1"
   inkscape:version="0.91 r13725"
   sodipodi:docname="Public_Bank.svg"><sodipodi:namedview
     pagecolor="#ffffff"
     bordercolor="#666666"
     borderopacity="1"
     objecttolerance="10"
     gridtolerance="10"
     guidetolerance="10"
     inkscape:pageopacity="0"
     inkscape:pageshadow="2"
     inkscape:window-width="1366"
     inkscape:window-height="705"
     id="namedview4153"
     showgrid="false"
     inkscape:zoom="2.072165"
     inkscape:cx="129.33333"
     inkscape:cy="13.512437"
     inkscape:window-x="-8"
     inkscape:window-y="-8"
     inkscape:window-maximized="1"
     inkscape:current-layer="svg2" /><metadata
     id="metadata8"><rdf:RDF><cc:Work
         rdf:about=""><dc:format>image/svg+xml</dc:format><dc:type
           rdf:resource="http://purl.org/dc/dcmitype/StillImage" /><dc:title></dc:title></cc:Work></rdf:RDF></metadata><defs
     id="defs6" /><g
     id="g4192"
     transform="matrix(1.1735578,0,0,1.1735578,-13.712897,-80.650035)"><g
       id="g4180"><path
         id="path16"
         style="fill:#e42126;fill-opacity:1;fill-rule:evenodd;stroke:none"
         d="m 31.704666,159.32401 c 0,2.56666 -0.2568,3.85 -1.026533,4.87653 -1.283334,1.28333 -2.566667,1.54013 -5.390134,1.54013 l -7.956266,-0.2568 c -0.2568,0 -0.2568,0.2568 -0.513467,0.2568 0,0 0,0.25667 0,0.51294 l 0,3.59333 -5.133373,0 0,-16.42613 13.603106,0 c 2.823467,0 4.1068,0 5.133334,1.02653 1.026533,1.28333 1.283333,2.0532 1.283333,4.87667 z m -6.673467,2.30986 c 0.5136,0 1.026667,0 1.540134,-0.51306 0.2568,-0.51347 0.5136,-1.02707 0.5136,-1.7968 0,-0.51307 0,-1.02667 -0.5136,-1.54014 -0.770267,-0.51306 -1.026534,-0.51306 -1.540134,-0.51306 l -7.699466,0 c -0.2568,0 -0.2568,0 -0.2568,0 -0.256667,0.25626 -0.256667,0.25626 -0.256667,0.51306 l 0,3.33694 c 0,0.2568 0,0.2568 0.256667,0.51306 0,0 0,0 0.2568,0 l 7.699466,0"
         inkscape:connector-curvature="0" /><path
         id="path18"
         style="fill:#e42126;fill-opacity:1;fill-rule:evenodd;stroke:none"
         d="m 36.837999,168.56401 c -1.026533,-1.02654 -1.540133,-2.0536 -1.540133,-3.5932 l 0,-11.55 4.876666,0 0,10.52293 c 0,2.0536 4.106134,2.0536 5.903067,2.0536 1.5396,0 5.1328,0.25627 5.1328,-2.0536 l 0,-10.52293 5.133333,0 0,11.55 c 0,1.5396 -0.513067,2.30946 -1.2828,3.33653 -1.540133,1.79627 -6.416667,1.5396 -8.983333,1.5396 -2.823467,0 -7.9568,0.25667 -9.2396,-1.28293"
         inkscape:connector-curvature="0" /><path
         id="path20"
         style="fill:#e42126;fill-opacity:1;fill-rule:evenodd;stroke:none"
         d="m 79.186398,154.44734 c 0.7704,1.0272 1.026667,1.79693 1.026667,3.07973 0,1.02707 -0.256267,2.3104 -0.513067,2.82347 -0.769733,1.02707 -1.7964,1.02707 -1.7964,1.28333 0,0.2568 1.2828,0.2568 1.7964,0.77027 0.769733,1.02653 1.027067,1.7964 1.027067,2.82293 0,1.54014 -0.257334,2.82347 -1.283867,3.85 -1.026533,0.76987 -3.3364,0.76987 -5.1328,0.76987 l -14.629733,0 0,-16.42613 14.3724,0 c 2.053733,0 4.3636,0 5.133333,1.02653 z m -3.5932,4.1068 c 0,-0.77027 -0.512933,-1.54013 -1.540133,-1.54013 l -9.496267,0 0,3.07973 9.496267,0 c 1.0272,0 1.540133,-0.76973 1.540133,-1.5396 z m 0.5136,6.15987 c 0,-1.02707 -0.5136,-1.54 -2.053733,-1.54 l -9.496267,0 0,2.82333 9.7536,0 c 1.5396,0 1.7964,-0.51347 1.7964,-1.28333"
         inkscape:connector-curvature="0" /><path
         id="path22"
         style="fill:#e42126;fill-opacity:1;fill-rule:evenodd;stroke:none"
         d="m 100.7464,165.99734 0,3.8496 -17.196402,0 0,-16.42613 5.133333,0 0,12.57653 12.063069,0"
         inkscape:connector-curvature="0" /><path
         id="path24"
         style="fill:#e42126;fill-opacity:1;fill-rule:evenodd;stroke:none"
         d="m 104.0828,169.84694 5.13281,0 0,-16.426 -5.13281,0 z"
         inkscape:connector-curvature="0" /><path
         id="path26"
         style="fill:#e42126;fill-opacity:1;fill-rule:evenodd;stroke:none"
         d="m 133.08546,163.68694 c 0,0 0.5132,3.33707 -0.76986,4.6204 -1.28387,1.2828 -5.6468,1.5396 -9.24014,1.5396 -3.5932,0 -8.21293,-0.2568 -9.23946,-1.5396 -1.28334,-2.05373 -1.28334,-4.3636 -1.28334,-6.67347 0,-2.56666 0.25667,-5.13333 1.54,-6.92973 1.02614,-1.02653 5.3896,-1.28333 8.9828,-1.28333 3.85,0 7.7,0.2568 8.72667,1.28333 1.28333,1.54013 1.02653,4.36307 1.02653,4.36307 l -4.3636,0 c 0,0 0,-0.51307 -0.51293,-1.28334 -0.76987,-0.51306 -2.82347,-0.51306 -4.87667,-0.51306 -2.30986,0 -4.36346,0 -5.13333,0.76986 -0.51293,0.77027 -0.76973,2.30987 -0.76973,3.5932 0,1.28334 0,2.56667 0.76973,3.5932 0.5136,0.77027 2.82347,0.77027 5.13333,0.77027 2.0532,0 4.1068,0 4.87667,-0.51347 0.76973,-0.76986 0.51293,-1.79693 0.51293,-1.79693 l 4.6204,0"
         inkscape:connector-curvature="0" /><path
         id="path28"
         style="fill:#e42126;fill-opacity:1;fill-rule:evenodd;stroke:none"
         d="m 165.68133,154.44734 c 1.02667,1.0272 1.02667,1.79693 1.02667,3.07973 0,1.02707 -0.25734,2.3104 -0.51334,2.82347 -0.77066,1.02707 -1.79733,1.02707 -1.79733,1.28333 0,0.2568 1.284,0.2568 1.79733,0.77027 0.76934,1.02653 1.02667,1.7964 1.02667,2.82293 0,1.54014 -0.25733,2.82347 -1.28267,3.85 -1.02666,0.76987 -3.33733,0.76987 -5.13466,0.76987 l -14.372,0 0,-16.42613 14.116,0 c 2.05333,0 4.364,0 5.13333,1.02653 z m -3.59333,4.1068 c 0,-0.77027 -0.51334,-1.54013 -1.54,-1.54013 l -9.496,0 0,3.07973 9.496,0 c 1.02666,0 1.54,-0.76973 1.54,-1.5396 z m 0.51333,6.15987 c 0,-1.02707 -0.51333,-1.54 -2.05333,-1.54 l -9.496,0 0,2.82333 9.752,0 c 1.54133,0 1.79733,-0.51347 1.79733,-1.28333"
         inkscape:connector-curvature="0" /><path
         id="path30"
         style="fill:#e42126;fill-opacity:1;fill-rule:evenodd;stroke:none"
         d="m 168.76133,169.84694 9.24,-16.42613 7.44267,0 8.72666,16.42613 -5.38933,0 -1.79733,-3.33653 -11.036,0 -1.79734,3.33653 z m 9.24,-6.67293 c 0,0.25666 0,0.25666 0.256,0.25666 l 6.67333,0 c 0.25734,0 0.25734,0 0.25734,-0.25666 0.256,0 0.256,-0.2568 0.256,-0.2568 l -2.82267,-5.6464 c 0,-0.2568 -0.25733,-0.2568 -0.25733,-0.2568 0,-0.25667 -0.25734,-0.25667 -0.25734,-0.25667 l -0.76933,0 c 0,0 -0.256,0 -0.256,0.25667 0,0 0,0 -0.25733,0.2568 l -2.82267,5.3896 c 0,0.2568 -0.25733,0.2568 0,0.5136"
         inkscape:connector-curvature="0" /><path
         id="path32"
         style="fill:#e42126;fill-opacity:1;fill-rule:evenodd;stroke:none"
         d="m 202.89733,158.04067 c -0.25734,-0.5136 -0.25734,-0.5136 -0.77067,-0.5136 -0.51333,0 -0.51333,0 -0.51333,0.5136 l 0,11.80627 -4.62,0 0,-16.42613 8.47066,0 8.212,11.80626 c 0.25734,0.5136 0.51467,0.5136 1.02667,0.5136 0.25733,0 0.25733,0 0.25733,-0.5136 l 0,-11.80626 4.62,0 0,16.42613 -8.47066,0 -8.212,-11.80627"
         inkscape:connector-curvature="0" /><path
         id="path34"
         style="fill:#e42126;fill-opacity:1;fill-rule:evenodd;stroke:none"
         d="m 228.56266,163.94374 0,5.9032 -4.876,0 0,-16.42613 4.876,0 0,5.6464 0,0.2568 c 0.25733,0.25666 0.51333,0.25666 0.51333,0.25666 l 2.56667,0 6.41733,-6.15986 7.18534,0 -9.496,7.9568 10.26666,8.46933 -7.18666,0 -7.444,-6.41627 -2.30934,0 c -0.256,0 -0.256,0 -0.51333,0 0,0.25627 0,0.25627 0,0.51307"
         inkscape:connector-curvature="0" /></g><path
       inkscape:connector-curvature="0"
       d="m 155.928,84.378674 -15.91334,-15.655999 -23.09906,0 -16.1692,15.913333 0,16.425332 2.56666,2.31067 -2.56666,2.30933 0,16.42667 15.91293,15.65653 23.61267,0 15.656,-15.3992 0,-16.94 -2.30934,-2.05333 2.30934,-2.05334 z m -27.46294,48.509336 -18.99266,-18.99334 2.0536,-2.05333 5.13333,4.87733 23.61267,0 5.13333,-5.13333 2.30933,2.30933 z m -8.4692,-29.516 8.4692,-8.469336 8.72694,8.469336 -8.72694,8.46933 z m 25.40947,-8.469336 -5.39067,-5.133333 -23.09906,0 -5.3896,5.389333 -2.0536,-2.309333 18.99266,-18.993333 19.2496,18.993333 -2.30933,2.053333"
       style="fill:#e42126;fill-opacity:1;fill-rule:evenodd;stroke:none"
       id="path36" /></g></svg>